<svg width="43" height="43" viewBox="0 0 43 43" fill="none" xmlns="http://www.w3.org/2000/svg">
<path d="M21.5 43C27.2022 43 32.6708 40.7348 36.7028 36.7028C40.7348 32.6708 43 27.2022 43 21.5C43 15.7978 40.7348 10.3292 36.7028 6.2972C32.6708 2.26517 27.2022 0 21.5 0C15.7978 0 10.3292 2.26517 6.2972 6.2972C2.26517 10.3292 0 15.7978 0 21.5C0 27.2022 2.26517 32.6708 6.2972 36.7028C10.3292 40.7348 15.7978 43 21.5 43ZM14.2605 13.8826C14.924 12.0098 16.7045 10.75 18.6949 10.75H23.5912C26.5223 10.75 28.8906 13.1268 28.8906 16.0494C28.8906 17.9475 27.8744 19.7027 26.2283 20.6518L23.5156 22.2055C23.4988 23.2973 22.6002 24.1875 21.5 24.1875C20.383 24.1875 19.4844 23.2889 19.4844 22.1719V21.0381C19.4844 20.3158 19.8707 19.6523 20.5006 19.2912L24.2211 17.158C24.6158 16.9313 24.8594 16.5113 24.8594 16.0578C24.8594 15.3523 24.2883 14.7896 23.5912 14.7896H18.6949C18.4094 14.7896 18.1574 14.966 18.065 15.2348L18.0314 15.3355C17.6619 16.3854 16.5029 16.9312 15.4615 16.5617C14.4201 16.1922 13.8658 15.0332 14.2354 13.9918L14.2689 13.891L14.2605 13.8826ZM18.8125 29.5625C18.8125 28.8497 19.0956 28.1662 19.5997 27.6622C20.1037 27.1581 20.7872 26.875 21.5 26.875C22.2128 26.875 22.8963 27.1581 23.4003 27.6622C23.9044 28.1662 24.1875 28.8497 24.1875 29.5625C24.1875 30.2753 23.9044 30.9588 23.4003 31.4628C22.8963 31.9669 22.2128 32.25 21.5 32.25C20.7872 32.25 20.1037 31.9669 19.5997 31.4628C19.0956 30.9588 18.8125 30.2753 18.8125 29.5625Z" fill="white"/>
</svg>
