<svg width="59" height="46" viewBox="0 0 59 46" fill="none" xmlns="http://www.w3.org/2000/svg">
<path d="M44.1109 18.7408C36.0239 18.7408 29.4072 24.8742 29.4072 32.3705C29.4072 39.8668 36.0239 46.0001 44.1109 46.0001C52.198 46.0001 58.8147 39.8668 58.8147 32.3705C58.8147 24.8742 52.198 18.7408 44.1109 18.7408ZM49.6248 34.0742H45.9489V37.4816C45.9489 38.5038 45.2137 39.1853 44.1109 39.1853C43.0082 39.1853 42.273 38.5038 42.273 37.4816V34.0742H38.5971C37.4943 34.0742 36.7591 33.3927 36.7591 32.3705C36.7591 31.3483 37.4943 30.6668 38.5971 30.6668H42.273V27.2594C42.273 26.2371 43.0082 25.5557 44.1109 25.5557C45.2137 25.5557 45.9489 26.2371 45.9489 27.2594V30.6668H49.6248C50.7276 30.6668 51.4628 31.3483 51.4628 32.3705C51.4628 33.3927 50.7276 34.0742 49.6248 34.0742Z" fill="white"/>
<path d="M15.4389 28.963L17.6445 25.0444C18.5634 23.3407 20.4014 22.1481 22.607 22.1481H29.0398C29.2236 22.1481 29.4074 22.1481 29.4074 22.1481C32.7158 18.0593 38.0459 15.3333 44.1112 15.3333C46.3167 15.3333 48.3385 15.6741 50.3602 16.3556C49.6251 15.3333 48.7061 14.3111 47.7871 13.6296H49.6251C50.7278 13.6296 51.463 12.9481 51.463 11.9259C51.463 10.9037 50.7278 10.2222 49.6251 10.2222H44.4788L42.2732 5.11111C40.8028 2.04444 37.4945 0 33.8186 0H17.6445C13.9685 0 10.6602 2.04444 9.18983 5.11111L6.80047 10.2222H1.83797C0.735186 10.2222 0 10.9037 0 11.9259C0 12.9481 0.735186 13.6296 1.83797 13.6296H3.67593C1.47037 15.163 0 17.7185 0 20.4444V27.2593C0 28.7926 0.735186 30.1556 1.83797 31.0074V34.0741C1.83797 36.9704 4.22732 39.1852 7.35186 39.1852H11.0278C14.1523 39.1852 16.5417 36.9704 16.5417 34.0741V32.3704H25.7315C25.7315 31.1778 25.9153 29.9852 26.0991 28.963H15.4389ZM12.8658 23.8519H7.35186C6.24908 23.8519 5.5139 23.1704 5.5139 22.1481C5.5139 21.1259 6.24908 20.4444 7.35186 20.4444H12.8658C13.9685 20.4444 14.7037 21.1259 14.7037 22.1481C14.7037 23.1704 13.9685 23.8519 12.8658 23.8519ZM10.1088 11.9259L12.682 6.47407C13.6009 4.6 15.4389 3.40741 17.6445 3.40741H33.6348C35.8403 3.40741 37.8621 4.6 38.7811 6.47407L41.3542 11.9259H10.1088Z" fill="white"/>
</svg>
