<svg width="33" height="30" viewBox="0 0 33 30" fill="none" xmlns="http://www.w3.org/2000/svg">
<path d="M28.9581 5.42588C30.1083 6.89718 30.1083 8.94537 30.1083 13.0417C30.1083 17.138 30.1083 19.1862 28.9581 20.6576C28.4601 21.2944 27.8202 21.8413 27.0751 22.267C25.5712 23.1258 23.5524 23.2343 19.8708 23.248V23.25L17.9843 26.4746C17.3556 27.5495 15.5609 27.5495 14.9322 26.4746L13.0457 23.25V23.248C9.36413 23.2343 7.34523 23.1258 5.84142 22.267C5.09619 21.8413 4.45635 21.2944 3.95839 20.6576C2.80817 19.1862 2.80817 17.138 2.80817 13.0417C2.80817 8.94537 2.80817 6.89718 3.95839 5.42588C4.45635 4.78894 5.09619 4.24207 5.84142 3.81647C7.56285 2.83337 9.95924 2.83337 14.752 2.83337H18.1645C22.9572 2.83337 25.3537 2.83337 27.0751 3.81647C27.8202 4.24207 28.4601 4.78894 28.9581 5.42588Z" stroke="white" stroke-width="4" stroke-linecap="round" stroke-linejoin="round"/>
<path d="M11.3395 10.125H21.577" stroke="white" stroke-width="2" stroke-linecap="round" stroke-linejoin="round"/>
<path d="M11.3395 15.9584H16.4583" stroke="white" stroke-width="2" stroke-linecap="round" stroke-linejoin="round"/>
</svg>
