<svg width="47" height="46" viewBox="0 0 47 46" fill="none" xmlns="http://www.w3.org/2000/svg">
<path d="M33.9893 0L46.807 12.8177V40.849C46.807 42.2865 46.288 43.5242 45.2497 44.5625C44.2914 45.5208 43.0935 46 41.656 46H5.95805C4.52055 46 3.28271 45.5208 2.24451 44.5625C1.28617 43.5242 0.807007 42.2865 0.807007 40.849V5.15104C0.807007 3.71354 1.28617 2.51562 2.24451 1.55729C3.28271 0.519097 4.52055 0 5.95805 0H33.9893ZM10.9893 10.1823V15.3333H23.807V10.1823H10.9893ZM36.6247 35.8177V30.6667H10.9893V35.8177H36.6247ZM36.6247 25.5156V20.4844H10.9893V25.5156H36.6247ZM31.4737 15.3333H41.656L31.4737 5.15104V15.3333Z" fill="white"/>
</svg>
