<svg width="47" height="46" viewBox="0 0 47 46" fill="none" xmlns="http://www.w3.org/2000/svg">
<path d="M26.022 16.0892V11.446H21.4868V16.0892H26.022ZM26.022 34.554V20.7324H21.4868V34.554H26.022ZM7.44923 6.80282C11.9844 2.26761 17.4195 0 23.7544 0C30.0894 0 35.4884 2.26761 39.9516 6.80282C44.4868 11.266 46.7544 16.665 46.7544 23C46.7544 29.335 44.4868 34.77 39.9516 39.3052C35.4884 43.7683 30.0894 46 23.7544 46C17.4195 46 11.9844 43.7683 7.44923 39.3052C2.98601 34.77 0.754395 29.335 0.754395 23C0.754395 16.665 2.98601 11.266 7.44923 6.80282Z" fill="#FFFBFB"/>
</svg>
