<svg width="37" height="40" viewBox="0 0 37 40" fill="none" xmlns="http://www.w3.org/2000/svg">
<path d="M31.9895 17.8218H5.01042C2.88181 17.8218 1.15625 19.5416 1.15625 21.663V35.1072C1.15625 37.2285 2.88181 38.9483 5.01042 38.9483H31.9895C34.1182 38.9483 35.8438 37.2285 35.8438 35.1072V21.663C35.8438 19.5416 34.1182 17.8218 31.9895 17.8218Z" stroke="#9A9A9A" stroke-linecap="round" stroke-linejoin="round"/>
<path d="M8.86469 17.8218V10.1395C8.86469 7.5926 9.87985 5.15004 11.6868 3.34914C13.4938 1.54824 15.9446 0.536499 18.5001 0.536499C21.0556 0.536499 23.5063 1.54824 25.3133 3.34914C27.1203 5.15004 28.1355 7.5926 28.1355 10.1395V17.8218" stroke="#9A9A9A" stroke-linecap="round" stroke-linejoin="round"/>
</svg>
