<svg width="41" height="41" viewBox="0 0 41 41" fill="none" xmlns="http://www.w3.org/2000/svg">
<path d="M37.5833 28.905V34.03C37.5853 34.5058 37.4878 34.9767 37.2972 35.4126C37.1066 35.8486 36.827 36.2399 36.4765 36.5615C36.1259 36.8832 35.712 37.128 35.2613 37.2805C34.8106 37.4329 34.333 37.4895 33.8592 37.4467C28.6023 36.8755 23.5528 35.0792 19.1162 32.2021C14.9886 29.5792 11.4891 26.0797 8.86624 21.9521C5.97912 17.4954 4.1824 12.4213 3.62165 7.14084C3.57896 6.66843 3.63511 6.1923 3.78651 5.74278C3.93791 5.29325 4.18125 4.88018 4.50105 4.52986C4.82084 4.17953 5.21007 3.89963 5.64396 3.70798C6.07786 3.51632 6.5469 3.41712 7.02124 3.41667H12.1462C12.9753 3.40851 13.779 3.7021 14.4077 4.2427C15.0363 4.78331 15.4469 5.53406 15.5629 6.355C15.7792 7.99512 16.1804 9.6055 16.7587 11.1554C16.9886 11.7669 17.0383 12.4314 16.9021 13.0703C16.7658 13.7091 16.4493 14.2955 15.99 14.76L13.8204 16.9296C16.2523 21.2065 19.7935 24.7477 24.0704 27.1796L26.24 25.01C26.7045 24.5507 27.2909 24.2342 27.9297 24.0979C28.5686 23.9617 29.2331 24.0114 29.8446 24.2413C31.3945 24.8196 33.0049 25.2208 34.645 25.4371C35.4748 25.5542 36.2327 25.9721 36.7745 26.6116C37.3162 27.251 37.6041 28.0672 37.5833 28.905Z" stroke="#9A9A9A" stroke-linecap="round" stroke-linejoin="round"/>
</svg>
